<?xml version="1.0" encoding="UTF-8"?><svg id="Even" xmlns="http://www.w3.org/2000/svg" viewBox="0 0 811.5 168.9"><defs><style>.cls-1{fill:#1b2845;stroke-width:0px;}</style></defs><g id="Wampler_Logo"><path class="cls-1" d="M41.4,55.2v13.2c0,7.5,2.3,13.8,6.8,18.8l7.4,5.6V0h41.4v68.4c0,7.5,2.3,13.9,6.8,19.1l6.5,5.4V0h41.4v136.6h-83.8c-12.2-.2-24-3.7-35.4-10.6-11.4-7-19.9-16.3-25.4-28-1.5-3.5-2.9-7-3.9-10.2-1.9-6.4-2.9-11.3-3.2-14.7V0h41.4v55.2Z"/><path class="cls-1" d="M212.4,114.9l-13.5-.1v21.8h-41.4V0h28.3c12.2.2,24,3.7,35.4,10.6,11.4,6.9,19.9,16.2,25.4,27.9,1.5,3.5,2.9,6.9,4,10.2,1.8,6.4,2.9,11.3,3.1,14.7v73.1h-41.2l-.1-21.6ZM198.9,79.3l13.4.1c0-15.1-2.3-25.2-6.8-30.4l-6.5-5.5v35.8h-.1Z"/><path class="cls-1" d="M300.7,81.4v55.2h-41.4V63.5c.3-3.4,1.3-8.3,3.1-14.7,1.1-3.3,2.4-6.7,3.9-10.2,5.5-11.7,14-21,25.4-27.9,11.5-7,23.3-10.5,35.5-10.7h84v136.6h-41.4V43.6l-6.5,5.5c-4.5,5.2-6.8,11.5-6.8,19.1v68.4h-41.4V43.8l-7.4,5.6c-4.5,5-6.8,11.3-6.8,18.8v13.2h-.2Z"/><path class="cls-1" d="M527.7,62.3c-.4,1.4-.7,3.1-1.1,5.2-1.1,3.1-2.5,6.2-4.4,9.3-6.2,9.9-15,18.1-26.4,24.7-11.4,6.5-23.4,9.9-36,10.2v24.9h-43.1V0h42.8c12.8.3,24.9,3.7,36.3,10.2,11.4,6.5,19.9,15.4,25.4,26.5,1.5,3.4,2.9,6.6,4,9.7,1.8,6,2.6,10.5,2.5,13.4v2.5ZM459.8,75.5c8.4-.9,14.9-4.3,19.8-10.2,3.7-6.2,3.7-12.5,0-18.9-4.8-5.9-11.2-9.2-19.2-9.8l-.5,1.9v37h-.1Z"/><path class="cls-1" d="M582.1,87.7c4.8,6.2,11.2,9.6,19.2,10.3v38.5c-12.3-.3-24.1-3.9-35.5-10.8-11.4-6.9-19.8-16.2-25.4-27.9-1.5-3.5-2.9-6.9-3.9-10.2-1.8-6.4-2.9-11.3-3.1-14.7V0h41.4v68.8c-.1,7.2,2.4,13.5,7.3,18.9"/><path class="cls-1" d="M801.3,61.7c-.3,1.4-.6,3.1-1,5.1-1,3.1-2.2,6.1-3.8,9.2-5.5,9.8-10,14.9-13.7,15.3,3.8,4,9.2,6.3,16.2,7v38.2c-10.8-.3-21.2-3.8-31.3-10.7-10.1-6.8-16.6-11.9-19.5-15.1h-6.9l.1,25.8h-38V0h37.7c11.3.3,22,3.6,32,10.1,10.1,6.5,17.5,15.2,22.4,26.2,1.4,3.3,2.5,6.5,3.5,9.6,1.6,5.9,2.3,10.4,2.2,13.2v2.6h.1ZM741.5,74.8c7.4-.9,13.2-4.3,17.4-10.1,3.3-6.1,3.3-12.4,0-18.8-4.2-5.9-9.9-9.1-17-9.7l-.5,1.9v36.7h.1Z"/><polygon class="cls-1" points="648.2 82.4 676.3 82.4 676.3 54.2 648.2 54.2 648.2 38.6 697.9 38.6 697.7 .1 606.9 0 606.9 136.6 697.7 136.6 697.9 97.9 648.2 97.9 648.2 82.4"/></g><path class="cls-1" d="M811.5,11.4c0,6.5-5.5,11.5-12.7,11.5s-12.7-5.1-12.7-11.5,5.7-11.4,12.7-11.4,12.7,5.1,12.7,11.4ZM789.2,11.4c0,5.1,4.1,9.1,9.6,9.1s9.4-4,9.4-9-4-9.2-9.5-9.2c-5.4,0-9.5,4.1-9.5,9.1ZM796.9,17.4h-2.9V6c1.1-.2,2.7-.3,4.7-.3,2.3,0,3.4.3,4.3.8.7.5,1.2,1.4,1.2,2.5,0,1.3-1.1,2.2-2.6,2.6v.1c1.2.4,1.9,1.3,2.3,2.8.4,1.7.6,2.4.9,2.8h-3.1c-.4-.4-.6-1.5-1-2.8-.2-1.3-1-1.8-2.6-1.8h-1.4v4.7h.2ZM796.9,10.9h1.4c1.6,0,2.9-.5,2.9-1.7,0-1-.8-1.7-2.6-1.7-.8,0-1.3.1-1.6.1v3.3h-.1Z"/><path class="cls-1" d="M623,149c.7.9,1,2,1,3.3s-.3,2.4-1,3.2c-.4.4-.9.9-1.7,1.2,1.1.4,1.9,1,2.5,1.9s.8,1.9.8,3.2-.3,2.4-1,3.4c-.4.7-.9,1.2-1.5,1.7-.7.5-1.5.9-2.4,1.1-.9.2-2,.3-3.1.3h-9.8v-21.6h10.5c2.7.1,4.6.8,5.7,2.3ZM611.2,150.5v4.8h5.3c.9,0,1.7-.2,2.3-.5.6-.4.9-1,.9-1.9,0-1-.4-1.7-1.2-2-.7-.2-1.5-.3-2.6-.3h-4.7v-.1ZM611.2,158.8v5.8h5.3c.9,0,1.7-.1,2.2-.4.9-.5,1.4-1.4,1.4-2.7,0-1.1-.5-1.9-1.4-2.3-.5-.2-1.2-.4-2.2-.4h-5.3Z"/><path class="cls-1" d="M628.5,146.7h4.6v13.3c0,1.5.2,2.6.5,3.2.5,1.2,1.7,1.8,3.6,1.8,1.8,0,3-.6,3.6-1.8.4-.7.5-1.8.5-3.2v-13.3h4.6v13.3c0,2.3-.4,4.1-1.1,5.4-1.3,2.3-3.9,3.5-7.6,3.5s-6.3-1.2-7.6-3.5c-.7-1.3-1.1-3.1-1.1-5.4v-13.3Z"/><path class="cls-1" d="M654.4,168.3h-4.5v-21.6h4.5v21.6Z"/><path class="cls-1" d="M658.6,146.7h4.5v17.7h10.9v3.9h-15.3v-21.6h-.1Z"/><path class="cls-1" d="M690.6,146.7v3.8h-6.5v17.8h-4.6v-17.8h-6.5v-3.8h17.6Z"/><path class="cls-1" d="M705.7,168.3h-4.5v-21.6h4.5v21.6Z"/><path class="cls-1" d="M709.9,146.7h4.7l8.6,15.1v-15.1h4.2v21.6h-4.5l-8.8-15.3v15.3h-4.2v-21.6Z"/><path class="cls-1" d="M740,146.7h4.6v13.3c0,1.5.2,2.6.5,3.2.5,1.2,1.7,1.8,3.6,1.8,1.8,0,3-.6,3.6-1.8.4-.7.5-1.8.5-3.2v-13.3h4.6v13.3c0,2.3-.4,4.1-1.1,5.4-1.3,2.3-3.9,3.5-7.6,3.5s-6.3-1.2-7.6-3.5c-.7-1.3-1.1-3.1-1.1-5.4v-13.3Z"/><path class="cls-1" d="M765,161.7c.1,1,.4,1.7.8,2.2.8.9,2,1.3,3.9,1.3,1.1,0,2-.1,2.7-.4,1.3-.4,1.9-1.3,1.9-2.5,0-.7-.3-1.3-.9-1.7-.6-.4-1.6-.7-3-1l-2.3-.5c-2.3-.5-3.9-1.1-4.8-1.7-1.5-1-2.2-2.6-2.2-4.7,0-1.9.7-3.5,2.1-4.8,1.4-1.3,3.5-1.9,6.3-1.9,2.3,0,4.3.6,5.9,1.8,1.6,1.2,2.5,3,2.6,5.3h-4.4c-.1-1.3-.7-2.2-1.7-2.8-.7-.4-1.6-.5-2.7-.5-1.2,0-2.1.2-2.9.7-.7.5-1.1,1.1-1.1,2,0,.8.4,1.3,1.1,1.7.5.3,1.4.6,2.9.9l3.8.9c1.7.4,2.9.9,3.7,1.6,1.3,1,1.9,2.5,1.9,4.4,0,2-.8,3.6-2.3,4.9-1.5,1.3-3.7,2-6.5,2s-5.1-.6-6.7-1.9c-1.6-1.3-2.5-3-2.5-5.3h4.4Z"/><path class="cls-1" d="M788,146.7h5.1l7.7,21.6h-4.9l-1.4-4.4h-8l-1.5,4.4h-4.7l7.7-21.6ZM787.7,160.2h5.5l-2.7-8.5-2.8,8.5Z"/></svg>